<svg width="496" height="70" viewBox="0 0 496 70" fill="none" xmlns="http://www.w3.org/2000/svg">
<path d="M175.852 34.9091C175.852 39.4541 175.001 43.3468 173.298 46.5874C171.609 49.8142 169.303 52.2857 166.378 54.0021C163.467 55.7185 160.165 56.5767 156.471 56.5767C152.777 56.5767 149.468 55.7185 146.543 54.0021C143.632 52.272 141.326 49.7936 139.623 46.5668C137.934 43.3262 137.089 39.4403 137.089 34.9091C137.089 30.3641 137.934 26.4782 139.623 23.2514C141.326 20.0109 143.632 17.5324 146.543 15.816C149.468 14.0997 152.777 13.2415 156.471 13.2415C160.165 13.2415 163.467 14.0997 166.378 15.816C169.303 17.5324 171.609 20.0109 173.298 23.2514C175.001 26.4782 175.852 30.3641 175.852 34.9091ZM168.17 34.9091C168.17 31.7098 167.669 29.0116 166.666 26.8146C165.678 24.6039 164.304 22.9356 162.547 21.8097C160.789 20.67 158.764 20.1001 156.471 20.1001C154.178 20.1001 152.152 20.67 150.395 21.8097C148.637 22.9356 147.257 24.6039 146.255 26.8146C145.266 29.0116 144.772 31.7098 144.772 34.9091C144.772 38.1084 145.266 40.8134 146.255 43.0241C147.257 45.2211 148.637 46.8894 150.395 48.0291C152.152 49.1551 154.178 49.718 156.471 49.718C158.764 49.718 160.789 49.1551 162.547 48.0291C164.304 46.8894 165.678 45.2211 166.666 43.0241C167.669 40.8134 168.17 38.1084 168.17 34.9091ZM202.911 42.6946V24.3636H210.367V56H203.138V50.3771H202.808C202.094 52.1484 200.92 53.5971 199.286 54.723C197.666 55.849 195.668 56.4119 193.292 56.4119C191.219 56.4119 189.386 55.9519 187.793 55.032C186.214 54.0982 184.978 52.7457 184.086 50.9744C183.193 49.1894 182.747 47.0336 182.747 44.5071V24.3636H190.203V43.3537C190.203 45.3584 190.752 46.9512 191.851 48.1321C192.949 49.313 194.391 49.9034 196.176 49.9034C197.274 49.9034 198.339 49.6357 199.368 49.1001C200.398 48.5646 201.243 47.7682 201.902 46.7109C202.575 45.6399 202.911 44.3011 202.911 42.6946ZM218.034 56V24.3636H225.263V29.6364H225.593C226.17 27.8101 227.158 26.4027 228.559 25.4141C229.973 24.4117 231.587 23.9105 233.399 23.9105C233.811 23.9105 234.271 23.9311 234.779 23.9723C235.301 23.9998 235.733 24.0478 236.077 24.1165V30.9751C235.761 30.8653 235.26 30.7692 234.573 30.6868C233.9 30.5907 233.248 30.5426 232.616 30.5426C231.257 30.5426 230.035 30.8378 228.95 31.4283C227.879 32.005 227.035 32.8082 226.417 33.8381C225.799 34.8679 225.49 36.0556 225.49 37.4013V56H218.034ZM278.67 25.4141C278.478 23.6153 277.668 22.2147 276.24 21.2124C274.826 20.21 272.986 19.7088 270.72 19.7088C269.127 19.7088 267.761 19.9491 266.621 20.4297C265.482 20.9103 264.61 21.5625 264.006 22.3864C263.402 23.2102 263.093 24.1508 263.079 25.2081C263.079 26.0869 263.278 26.849 263.676 27.4943C264.088 28.1397 264.644 28.6889 265.344 29.142C266.045 29.5814 266.821 29.9522 267.672 30.2543C268.523 30.5563 269.381 30.8104 270.246 31.0163L274.201 32.005C275.794 32.3757 277.325 32.8769 278.794 33.5085C280.277 34.1402 281.602 34.9366 282.769 35.8977C283.95 36.8589 284.884 38.0192 285.57 39.3786C286.257 40.7379 286.6 42.3307 286.6 44.157C286.6 46.6286 285.969 48.8049 284.705 50.6861C283.442 52.5535 281.616 54.0159 279.227 55.0732C276.851 56.1167 273.974 56.6385 270.597 56.6385C267.315 56.6385 264.466 56.1304 262.049 55.1143C259.646 54.0982 257.765 52.6153 256.406 50.6655C255.06 48.7157 254.332 46.3402 254.222 43.5391H261.74C261.85 45.0083 262.303 46.2304 263.099 47.2053C263.896 48.1802 264.933 48.9079 266.21 49.3885C267.5 49.8691 268.942 50.1094 270.535 50.1094C272.196 50.1094 273.652 49.8622 274.901 49.3679C276.165 48.8598 277.153 48.1596 277.867 47.267C278.581 46.3608 278.945 45.3035 278.959 44.0952C278.945 42.9967 278.622 42.0904 277.991 41.3764C277.359 40.6487 276.473 40.0445 275.334 39.5639C274.208 39.0696 272.89 38.6302 271.379 38.2457L266.58 37.0099C263.106 36.1174 260.36 34.7649 258.342 32.9524C256.337 31.1262 255.335 28.7027 255.335 25.6818C255.335 23.1965 256.007 21.0201 257.353 19.1527C258.712 17.2853 260.559 15.8366 262.893 14.8068C265.228 13.7633 267.871 13.2415 270.823 13.2415C273.817 13.2415 276.439 13.7633 278.691 14.8068C280.957 15.8366 282.735 17.2715 284.026 19.1115C285.316 20.9377 285.982 23.0386 286.023 25.4141H278.67ZM307.089 56.6179C303.917 56.6179 301.177 55.9588 298.871 54.6406C296.577 53.3087 294.813 51.4276 293.577 48.9972C292.341 46.553 291.724 43.6764 291.724 40.3672C291.724 37.1129 292.341 34.2569 293.577 31.799C294.827 29.3274 296.571 27.4051 298.809 26.032C301.047 24.6451 303.676 23.9517 306.697 23.9517C308.647 23.9517 310.487 24.2675 312.217 24.8991C313.961 25.517 315.499 26.4782 316.831 27.7827C318.176 29.0871 319.234 30.7486 320.003 32.767C320.772 34.7718 321.156 37.161 321.156 39.9347V42.2209H295.225V37.1953H314.009C313.995 35.7673 313.686 34.4972 313.082 33.3849C312.478 32.259 311.634 31.3733 310.549 30.728C309.478 30.0826 308.228 29.7599 306.8 29.7599C305.276 29.7599 303.937 30.1307 302.784 30.8722C301.631 31.5999 300.731 32.5611 300.086 33.7557C299.454 34.9366 299.131 36.2341 299.118 37.6484V42.0355C299.118 43.8755 299.454 45.4545 300.127 46.7727C300.8 48.0772 301.74 49.0795 302.949 49.7798C304.157 50.4664 305.571 50.8097 307.192 50.8097C308.276 50.8097 309.258 50.6586 310.137 50.3565C311.016 50.0407 311.778 49.5807 312.423 48.9766C313.068 48.3724 313.556 47.6241 313.885 46.7315L320.847 47.5142C320.408 49.3542 319.57 50.9607 318.334 52.3338C317.112 53.6932 315.547 54.7505 313.638 55.5057C311.73 56.2472 309.546 56.6179 307.089 56.6179ZM327.464 56V24.3636H334.693V29.6364H335.023C335.599 27.8101 336.588 26.4027 337.989 25.4141C339.403 24.4117 341.016 23.9105 342.829 23.9105C343.241 23.9105 343.701 23.9311 344.209 23.9723C344.731 23.9998 345.163 24.0478 345.506 24.1165V30.9751C345.191 30.8653 344.689 30.7692 344.003 30.6868C343.33 30.5907 342.678 30.5426 342.046 30.5426C340.687 30.5426 339.465 30.8378 338.38 31.4283C337.309 32.005 336.464 32.8082 335.847 33.8381C335.229 34.8679 334.92 36.0556 334.92 37.4013V56H327.464ZM379.681 24.3636L368.415 56H360.176L348.91 24.3636H356.86L364.131 47.8643H364.46L371.752 24.3636H379.681ZM384.841 56V24.3636H392.297V56H384.841ZM388.589 19.8736C387.408 19.8736 386.392 19.4822 385.541 18.6996C384.69 17.9032 384.264 16.9489 384.264 15.8366C384.264 14.7107 384.69 13.7564 385.541 12.9737C386.392 12.1773 387.408 11.7791 388.589 11.7791C389.784 11.7791 390.8 12.1773 391.638 12.9737C392.489 13.7564 392.915 14.7107 392.915 15.8366C392.915 16.9489 392.489 17.9032 391.638 18.6996C390.8 19.4822 389.784 19.8736 388.589 19.8736ZM413.763 56.6179C410.605 56.6179 407.893 55.9245 405.628 54.5376C403.376 53.1508 401.639 51.2353 400.417 48.7912C399.209 46.3333 398.604 43.5047 398.604 40.3054C398.604 37.0923 399.222 34.2569 400.458 31.799C401.694 29.3274 403.438 27.4051 405.69 26.032C407.955 24.6451 410.633 23.9517 413.722 23.9517C416.29 23.9517 418.563 24.4254 420.54 25.3729C422.531 26.3066 424.117 27.6316 425.298 29.348C426.478 31.0507 427.151 33.0417 427.316 35.321H420.19C419.901 33.7969 419.215 32.5268 418.13 31.5107C417.059 30.4808 415.624 29.9659 413.825 29.9659C412.301 29.9659 410.962 30.3778 409.809 31.2017C408.656 32.0118 407.756 33.179 407.111 34.7031C406.479 36.2273 406.163 38.0535 406.163 40.1818C406.163 42.3376 406.479 44.1913 407.111 45.7429C407.742 47.2808 408.628 48.4685 409.768 49.3061C410.921 50.13 412.274 50.5419 413.825 50.5419C414.924 50.5419 415.906 50.3359 416.771 49.924C417.649 49.4983 418.384 48.8873 418.974 48.0909C419.565 47.2945 419.97 46.3265 420.19 45.1868H427.316C427.138 47.425 426.478 49.4091 425.339 51.1392C424.199 52.8556 422.647 54.2012 420.684 55.1761C418.72 56.1373 416.414 56.6179 413.763 56.6179ZM447.444 56.6179C444.272 56.6179 441.533 55.9588 439.226 54.6406C436.933 53.3087 435.169 51.4276 433.933 48.9972C432.697 46.553 432.079 43.6764 432.079 40.3672C432.079 37.1129 432.697 34.2569 433.933 31.799C435.182 29.3274 436.926 27.4051 439.164 26.032C441.402 24.6451 444.032 23.9517 447.053 23.9517C449.003 23.9517 450.843 24.2675 452.573 24.8991C454.316 25.517 455.854 26.4782 457.186 27.7827C458.532 29.0871 459.589 30.7486 460.358 32.767C461.127 34.7718 461.512 37.161 461.512 39.9347V42.2209H435.58V37.1953H454.365C454.351 35.7673 454.042 34.4972 453.438 33.3849C452.834 32.259 451.989 31.3733 450.904 30.728C449.833 30.0826 448.584 29.7599 447.156 29.7599C445.632 29.7599 444.293 30.1307 443.139 30.8722C441.986 31.5999 441.087 32.5611 440.441 33.7557C439.81 34.9366 439.487 36.2341 439.473 37.6484V42.0355C439.473 43.8755 439.81 45.4545 440.482 46.7727C441.155 48.0772 442.096 49.0795 443.304 49.7798C444.512 50.4664 445.927 50.8097 447.547 50.8097C448.632 50.8097 449.614 50.6586 450.492 50.3565C451.371 50.0407 452.133 49.5807 452.779 48.9766C453.424 48.3724 453.911 47.6241 454.241 46.7315L461.203 47.5142C460.763 49.3542 459.926 50.9607 458.69 52.3338C457.468 53.6932 455.902 54.7505 453.994 55.5057C452.085 56.2472 449.902 56.6179 447.444 56.6179ZM492.824 32.7259L486.027 33.4673C485.834 32.7808 485.498 32.1354 485.017 31.5312C484.551 30.9271 483.919 30.4396 483.123 30.0689C482.326 29.6982 481.351 29.5128 480.198 29.5128C478.646 29.5128 477.342 29.8492 476.284 30.522C475.241 31.1948 474.726 32.0668 474.74 33.1378C474.726 34.0578 475.062 34.8061 475.749 35.3828C476.449 35.9595 477.603 36.4332 479.209 36.804L484.605 37.9574C487.599 38.6027 489.823 39.6257 491.279 41.0263C492.748 42.4268 493.489 44.2599 493.503 46.5256C493.489 48.5166 492.906 50.2741 491.752 51.7983C490.613 53.3087 489.027 54.4896 486.995 55.3409C484.962 56.1922 482.628 56.6179 479.992 56.6179C476.12 56.6179 473.003 55.8078 470.641 54.1875C468.279 52.5535 466.872 50.281 466.419 47.37L473.689 46.6697C474.019 48.0978 474.719 49.1757 475.79 49.9034C476.861 50.6312 478.255 50.995 479.971 50.995C481.743 50.995 483.164 50.6312 484.235 49.9034C485.319 49.1757 485.862 48.2763 485.862 47.2053C485.862 46.299 485.512 45.5507 484.811 44.9602C484.125 44.3698 483.054 43.9167 481.598 43.6009L476.202 42.468C473.167 41.8364 470.922 40.7723 469.467 39.2756C468.011 37.7652 467.291 35.8565 467.304 33.5497C467.291 31.5999 467.819 29.911 468.89 28.483C469.975 27.0412 471.479 25.929 473.401 25.1463C475.337 24.3499 477.568 23.9517 480.095 23.9517C483.802 23.9517 486.72 24.7412 488.848 26.3203C490.99 27.8994 492.315 30.0346 492.824 32.7259Z" fill="#1F1F1F"/>
<path d="M100 39.5C100.828 39.5 101.5 38.8284 101.5 38C101.5 37.1716 100.828 36.5 100 36.5V39.5ZM0 39.5H100V36.5H0V39.5Z" fill="#1F1F1F"/>
</svg>
